<?xml version="1.0" encoding="UTF-8" standalone="no"?>
<svg width="42px" height="42px" viewBox="0 0 42 42" version="1.1" xmlns="http://www.w3.org/2000/svg" xmlns:xlink="http://www.w3.org/1999/xlink">
    <!-- Generator: Sketch 44 (41411) - http://www.bohemiancoding.com/sketch -->
    <title>Group 8</title>
    <desc>Created with Sketch.</desc>
    <defs>
        <path d="M19.8242923,0 C19.1075614,0 18.7459963,0.779979862 19.2611466,1.23063489 L25.0749857,6.48827693 L19.2611466,11.745919 C18.4772222,12.4247903 19.6371103,13.4719855 20.3890378,12.764226 L26.7660226,6.99670824 C27.0779925,6.71504885 27.0779925,6.2600606 26.7660226,5.9784012 L20.3890378,0.209439037 C20.2386523,0.0722203576 20.0402714,0 19.8242923,0 Z M20.5,6 C9.18715385,6 0,14.5149231 0,25 C0,35.4850769 9.18715385,44 20.5,44 C31.8128462,44 41,35.4850769 41,25 L41,24.2692308 C41,23.3148462 39.4230769,23.2929231 39.4230769,24.2692308 L39.4230769,25 C39.4230769,34.6943846 30.9597308,42.5384615 20.5,42.5384615 C10.0402692,42.5384615 1.57692308,34.6943846 1.57692308,25 C1.57692308,15.3056154 10.0402692,7.46153846 20.5,7.46153846 L21.2884615,7.46153846 C22.3134615,7.46153846 22.3497308,6 21.2884615,6 L20.5,6 Z" id="path-1"></path>
    </defs>
    <g id="Page-1" stroke="none" stroke-width="1" fill="none" fill-rule="evenodd">
        <g id="004-Change-Millions" transform="translate(-1135.000000, -102.000000)" fill-rule="nonzero">
            <g id="Group-9" transform="translate(1128.000000, 93.000000)">
                <g id="Group-8">
                    <g id="mbri-refresh" transform="translate(29.765264, 28.558526) rotate(62.000000) translate(-29.765264, -28.558526) translate(9.265264, 6.558526)">
                        <g id="Shape">
                            <use fill="#ABABAB" fill-rule="evenodd" xlink:href="#path-1"></use>
                            <path stroke="#ABABAB" stroke-width="1" d="M19.8242923,0.5 C19.9196963,0.5 19.9969007,0.528495087 20.0520234,0.578791602 L26.430588,6.34918907 C26.523014,6.43263545 26.523014,6.542474 26.430958,6.625586 L20.0536494,12.3933963 C19.9013529,12.5366111 19.7220787,12.5284083 19.5842123,12.4039368 C19.4737357,12.3041939 19.4694024,12.2269978 19.588466,12.1238899 L25.4103547,6.85912408 L25.8204332,6.48827693 L19.5965156,0.859787738 C19.4422612,0.724755284 19.5456295,0.5 19.8242923,0.5 Z M20.5,6.5 C9.45516612,6.5 0.5,14.7999101 0.5,25 C0.5,35.2000899 9.45516612,43.5 20.5,43.5 C31.5448339,43.5 40.5,35.2000899 40.5,25 L40.5,24.2692308 C40.5,24.1315851 40.3960728,24.046516 40.2080629,24.0452091 C40.0216534,24.0439133 39.9230769,24.1241458 39.9230769,24.2692308 L39.9230769,25 C39.9230769,34.9793716 31.227743,43.0384615 20.5,43.0384615 C9.77225696,43.0384615 1.07692308,34.9793716 1.07692308,25 C1.07692308,15.0206284 9.77225696,6.96153846 20.5,6.96153846 L21.2884615,6.96153846 C21.4786616,6.96153846 21.5690845,6.86693075 21.570851,6.72456576 C21.5725664,6.5863161 21.4907822,6.5 21.2884615,6.5 L20.5,6.5 Z"></path>
                        </g>
                    </g>
                </g>
            </g>
        </g>
    </g>
</svg>