<?xml version="1.0" encoding="UTF-8" standalone="no"?>
<svg width="229px" height="222px" viewBox="0 0 229 222" version="1.1" xmlns="http://www.w3.org/2000/svg" xmlns:xlink="http://www.w3.org/1999/xlink">
    <!-- Generator: Sketch 44 (41411) - http://www.bohemiancoding.com/sketch -->
    <title>mbri-search</title>
    <desc>Created with Sketch.</desc>
    <defs></defs>
    <g id="Page-1" stroke="none" stroke-width="1" fill="none" fill-rule="evenodd">
        <g id="002-Search-Copy-2" transform="translate(-579.000000, -347.000000)" fill-rule="nonzero" fill="#D5D5D5">
            <g id="Group" transform="translate(578.000000, 347.000000)">
                <g id="mbri-search">
                    <path d="M81.2364532,125.652083 C80.2446962,125.681649 79.3063415,126.080779 78.6121117,126.760778 L6.01550082,196.992902 C-0.819993432,203.593332 0.0954745484,212.765934 5.21446634,217.762452 C10.3258292,222.744187 19.8085517,223.638535 26.6516749,217.001148 L99.0499343,146.85772 C102.803353,143.369027 97.1427094,138.121205 93.663931,141.624681 L21.2656716,211.768108 C16.8409097,216.055062 13.1027488,214.946367 10.6157274,212.536804 C8.12870608,210.112457 7.0301445,206.431591 11.3938752,202.211159 L83.9981149,131.971644 C86.4851363,129.621211 84.6389425,125.637301 81.2288243,125.637301 L81.2364532,125.652083 Z M145.700657,15.299989 C133.463901,16.8743357 121.700138,22.0260711 112.209787,30.5482389 C108.471626,33.8964973 113.811856,39.1960587 117.397438,35.9734524 C134.02844,21.0430283 158.532466,17.9017262 178.596473,28.1386754 C183.021235,30.5925867 186.629704,23.6817221 182.143911,21.5973758 C170.700562,15.7582495 157.960299,13.7330336 145.708286,15.299989 L145.700657,15.299989 Z M153.711002,0 C111.622361,0 77.4220033,33.1351935 77.4220033,73.9129903 C77.4220033,114.690787 111.622361,147.825981 153.711002,147.825981 C195.799642,147.825981 230,114.690787 230,73.9129903 C230,33.1351935 195.799642,0 153.711002,0 Z M153.711002,7.39129903 C191.672407,7.39129903 222.3711,37.1338863 222.3711,73.9129903 C222.3711,110.692094 191.672407,140.434682 153.711002,140.434682 C115.749596,140.434682 85.0509031,110.692094 85.0509031,73.9129903 C85.0509031,37.1338863 115.749596,7.39129903 153.711002,7.39129903 Z" id="Shape"></path>
                </g>
            </g>
        </g>
    </g>
</svg>