<?xml version="1.0" encoding="UTF-8" standalone="no"?>
<svg width="40px" height="40px" viewBox="0 0 40 40" version="1.1" xmlns="http://www.w3.org/2000/svg" xmlns:xlink="http://www.w3.org/1999/xlink">
    <!-- Generator: Sketch 44 (41411) - http://www.bohemiancoding.com/sketch -->
    <title>mbri-setting3</title>
    <desc>Created with Sketch.</desc>
    <defs></defs>
    <g id="Page-1" stroke="none" stroke-width="1" fill="none" fill-rule="evenodd">
        <g id="004-Change-Millions" transform="translate(-1272.000000, -103.000000)" fill-rule="nonzero" fill="#ABABAB">
            <g id="Group-9" transform="translate(1128.000000, 93.000000)">
                <g id="mbri-setting3" transform="translate(144.000000, 10.000000)">
                    <path d="M18,0 C16.904,0 16,0.904 16,2 L16,4.62 C14.576,4.98666667 13.216,5.54666667 11.9466667,6.28666667 L10.24,4.58 C9.464,3.80666667 8.18666667,3.80666667 7.40933333,4.58 L4.58266667,7.40933333 C3.80533333,8.18533333 3.80533333,9.46266667 4.58266667,10.24 L6.292,11.9506667 C5.54533333,13.2173333 4.98,14.5773333 4.608,16 L2,16 C0.904,16 0,16.904 0,18 L0,22 C0,23.096 0.904,24 2,24 L4.62,24 C4.98666667,25.424 5.54666667,26.784 6.28666667,28.0533333 L4.58,29.76 C3.80666667,30.536 3.80666667,31.8133333 4.58,32.5906667 L7.40933333,35.4173333 C8.18533333,36.1946667 9.46266667,36.1946667 10.24,35.4173333 L11.9506667,33.708 C13.2173333,34.4546667 14.5773333,35.02 16,35.392 L16,38 C16,39.096 16.904,40 18,40 L22,40 C23.096,40 24,39.096 24,38 L24,35.38 C25.424,35.0133333 26.784,34.4533333 28.0533333,33.7133333 L29.76,35.42 C30.536,36.1933333 31.8133333,36.1933333 32.5906667,35.42 L35.4173333,32.5906667 C36.1946667,31.8146667 36.1946667,30.5373333 35.4173333,29.76 L33.708,28.0493333 C34.4546667,26.7826667 35.02,25.4226667 35.392,24 L38,24 C39.096,24 40,23.096 40,22 L40,18 C40,16.904 39.096,16 38,16 L35.38,16 C35.0133333,14.576 34.4533333,13.216 33.7133333,11.9466667 L35.42,10.24 C36.1933333,9.464 36.1933333,8.18666667 35.42,7.40933333 L32.5906667,4.58266667 C31.8146667,3.80533333 30.5373333,3.80533333 29.76,4.58266667 L28.0493333,6.292 C26.7826667,5.54533333 25.4226667,4.98 24,4.608 L24,2 C24,0.904 23.096,0 22,0 L18,0 Z M18,1.33333333 L22,1.33333333 C22.3813333,1.33333333 22.6666667,1.61866667 22.6666667,2 L22.6666667,5.044 C22.6665107,5.3558054 22.8825005,5.62606951 23.1866667,5.69466667 C24.844,6.068 26.424,6.72133333 27.8573333,7.63466667 C28.12088,7.80039177 28.4640384,7.76164807 28.684,7.54133333 L30.7026667,5.52533333 C30.972,5.256 31.38,5.256 31.6493333,5.52533333 L34.476,8.352 C34.7453333,8.62133333 34.7453333,9.02933333 34.476,9.29866667 L32.4666667,11.3066667 C32.2449701,11.5270417 32.2061639,11.8718619 32.3733333,12.136 C33.28,13.5706667 33.9293333,15.152 34.2933333,16.8093333 C34.3605294,17.1160667 34.6326608,17.3343272 34.9466667,17.3333333 L38,17.3333333 C38.3813333,17.3333333 38.6666667,17.6186667 38.6666667,18 L38.6666667,22 C38.6666667,22.3813333 38.3813333,22.6666667 38,22.6666667 L34.956,22.6666667 C34.6441946,22.6665107 34.3739305,22.8825005 34.3053333,23.1866667 C33.932,24.844 33.2786667,26.424 32.3653333,27.8573333 C32.1996082,28.12088 32.2383519,28.4640384 32.4586667,28.684 L34.4746667,30.7026667 C34.744,30.972 34.744,31.38 34.4746667,31.6493333 L31.648,34.476 C31.3786667,34.7453333 30.9706667,34.7453333 30.7013333,34.476 L28.6933333,32.4666667 C28.4729583,32.2449701 28.1281381,32.2061639 27.864,32.3733333 C26.4293333,33.28 24.848,33.9293333 23.1906667,34.2933333 C22.8839333,34.3605294 22.6656728,34.6326608 22.6666667,34.9466667 L22.6666667,38 C22.6666667,38.3813333 22.3813333,38.6666667 22,38.6666667 L18,38.6666667 C17.6186667,38.6666667 17.3333333,38.3813333 17.3333333,38 L17.3333333,34.956 C17.3334893,34.6441946 17.1174995,34.3739305 16.8133333,34.3053333 C15.156,33.932 13.576,33.2786667 12.1426667,32.3653333 C11.87912,32.1996082 11.5359616,32.2383519 11.316,32.4586667 L9.29733333,34.4746667 C9.028,34.744 8.62,34.744 8.35066667,34.4746667 L5.524,31.648 C5.25466667,31.3786667 5.25466667,30.9706667 5.524,30.7013333 L7.53333333,28.6933333 C7.75502994,28.4729583 7.79383607,28.1281381 7.62666667,27.864 C6.72,26.4293333 6.07066667,24.848 5.70666667,23.1906667 C5.63947064,22.8839333 5.36733923,22.6656728 5.05333333,22.6666667 L2,22.6666667 C1.61866667,22.6666667 1.33333333,22.3813333 1.33333333,22 L1.33333333,18 C1.33333333,17.6186667 1.61866667,17.3333333 2,17.3333333 L5.044,17.3333333 C5.3558054,17.3334893 5.62606951,17.1174995 5.69466667,16.8133333 C6.068,15.156 6.72133333,13.576 7.63466667,12.1426667 C7.80039177,11.87912 7.76164807,11.5359616 7.54133333,11.316 L5.52533333,9.296 C5.256,9.02666667 5.256,8.61866667 5.52533333,8.34933333 L8.352,5.52266667 C8.62133333,5.25333333 9.02933333,5.25333333 9.29866667,5.52266667 L11.3066667,7.53333333 C11.5270417,7.75502994 11.8718619,7.79383607 12.136,7.62666667 C13.5706667,6.72 15.152,6.07066667 16.8093333,5.70666667 C17.1160667,5.63947064 17.3343272,5.36733923 17.3333333,5.05333333 L17.3333333,2 C17.3333333,1.61866667 17.6186667,1.33333333 18,1.33333333 Z M20,13.3333333 C16.3253333,13.3333333 13.3333333,16.3253333 13.3333333,20 C13.3333333,23.6746667 16.3253333,26.6666667 20,26.6666667 C23.6746667,26.6666667 26.6666667,23.6746667 26.6666667,20 C26.6666667,16.3253333 23.6746667,13.3333333 20,13.3333333 Z M20,14.6666667 C22.9533333,14.6666667 25.3333333,17.0466667 25.3333333,20 C25.3333333,22.9533333 22.9533333,25.3333333 20,25.3333333 C17.0466667,25.3333333 14.6666667,22.9533333 14.6666667,20 C14.6666667,17.0466667 17.0466667,14.6666667 20,14.6666667 Z" id="Shape"></path>
                </g>
            </g>
        </g>
    </g>
</svg>